HIERARCHY
ROOT Hips
{
	OFFSET 0.000000 0.000000 0.000000
	CHANNELS 6 Xposition Yposition Zposition Zrotation Yrotation Xrotation 
	JOINT LHipJoint
	{
		OFFSET 0.000000 0.000000 0.000000
		CHANNELS 3 Zrotation Yrotation Xrotation
		JOINT LeftUpLeg
		{
			OFFSET 1.363060 -1.794630 0.839290
			CHANNELS 3 Zrotation Yrotation Xrotation
			JOINT LeftLeg
			{
				OFFSET 2.448110 -6.726130 0.000000
				CHANNELS 3 Zrotation Yrotation Xrotation
				JOINT LeftFoot
				{
					OFFSET 2.562200 -7.039590 0.000000
					CHANNELS 3 Zrotation Yrotation Xrotation
					JOINT LeftToeBase
					{
						OFFSET 0.157640 -0.433110 2.322550
						CHANNELS 3 Zrotation Yrotation Xrotation
						End Site
						{
							OFFSET 0.000000 0.000000 0.000000
						}
					}
				}
			}
		}
	}
	JOINT RHipJoint
	{
		OFFSET 0.000000 0.000000 0.000000
		CHANNELS 3 Zrotation Yrotation Xrotation
		JOINT RightUpLeg
		{
			OFFSET -1.305520 -1.794630 0.839290
			CHANNELS 3 Zrotation Yrotation Xrotation
			JOINT RightLeg
			{
				OFFSET -2.542530 -6.985550 0.000000
				CHANNELS 3 Zrotation Yrotation Xrotation
				JOINT RightFoot
				{
					OFFSET -2.568260 -7.056230 0.000000
					CHANNELS 3 Zrotation Yrotation Xrotation
					JOINT RightToeBase
					{
						OFFSET -0.164730 -0.452590 2.363150
						CHANNELS 3 Zrotation Yrotation Xrotation
						End Site
						{
							OFFSET 0.000000 0.000000 0.000000
						}
					}
				}
			}
		}
	}
}
MOTION
Frames: 11
Frame Time: 0.008333
-1.760336 16.778475 -0.905628 -89.157613 88.740912 -77.461207 -11.465733 2.875441 -0.099314 -8.869835 -0.801968 0.448417 -1.074741 1.553712 29.498927 0.975662 5.403586 -6.614000 0.012401 -0.000000 -63.541700 7.638972 -0.505418 3.992259 3.641771 11.658487 -34.565473 2.991992 -0.470842 10.295304 1.801020 12.513660 12.155673 3.695800 -0.000000 -59.983000
-1.614484 16.795926 -0.904086 -100.505403 88.447821 -88.845120 -11.771008 2.965800 -0.150228 -8.250546 0.038342 -0.705013 -0.875726 1.739660 31.702996 1.026965 5.988523 -5.113179 0.178200 -0.000000 -64.966800 7.529328 -0.602333 3.884451 4.387026 11.241107 -34.268682 3.042346 -0.518722 10.943130 1.795515 12.372833 12.105205 3.626300 0.000000 -58.185600
-1.471846 16.814227 -0.900652 -109.571800 88.093234 -97.928839 -12.030182 3.042956 -0.213129 -7.672319 0.948038 -1.996268 -0.670348 1.916090 33.995726 1.117331 6.785539 -3.552535 0.381599 -0.000000 -65.455200 7.459932 -0.681106 3.791929 5.070941 10.820100 -33.955640 3.092728 -0.552698 11.536471 1.789102 12.216133 11.828753 3.510000 0.000000 -56.277600
-1.332557 16.833265 -0.895627 -117.229356 87.686481 -105.578548 -12.251052 3.097514 -0.285678 -7.151271 1.897462 -3.416412 -0.462221 2.079219 36.360017 1.251804 7.831477 -1.987611 0.638600 -0.000000 -64.751100 7.417809 -0.747940 3.719946 5.678575 10.422073 -33.634303 3.140399 -0.572480 12.060513 1.778277 12.015356 11.375562 3.349200 0.000000 -54.363400
-1.196503 16.852941 -0.889577 -123.895717 87.226315 -112.202359 -12.440510 3.123043 -0.363237 -6.697544 2.856846 -4.962051 -0.257437 2.226660 38.778254 1.430907 9.137644 -0.491305 0.962800 0.000000 -62.633100 7.391970 -0.808016 3.675149 6.203504 10.072973 -33.317987 3.183404 -0.577673 12.500818 1.759361 11.738633 10.802284 3.147000 0.000000 -52.558000
-1.064045 16.873211 -0.882602 -129.829962 86.723471 -118.064176 -12.596422 3.118099 -0.445603 -6.342038 3.792743 -6.599152 -0.065120 2.359191 41.212852 1.651675 10.697873 0.855998 1.360900 -0.000000 -58.944100 7.381163 -0.860107 3.653127 6.632876 9.773869 -33.006894 3.217407 -0.570266 12.859979 1.729608 11.376587 10.156082 2.912800 -0.000000 -50.975000
-0.935072 16.894041 -0.875212 -135.139380 86.175332 -123.268876 -12.722708 3.083649 -0.530343 -6.088014 4.684200 -8.313637 0.106495 2.479096 43.636062 1.903891 12.456355 1.955380 1.817600 0.000000 -53.620200 7.379242 -0.906365 3.654596 6.970011 9.535772 -32.706999 3.240619 -0.551051 13.133836 1.685989 10.907601 9.485253 2.652200 -0.000000 -49.691700
-0.809752 16.915429 -0.867703 -139.897825 85.584294 -127.898106 -12.819765 3.024295 -0.617415 -5.940621 5.512931 -10.073376 0.252104 2.590213 46.000326 2.174786 14.337454 2.748749 2.303300 0.000000 -47.053899 7.384747 -0.946156 3.673548 7.218737 9.355521 -32.412651 3.250772 -0.522120 13.327722 1.626327 10.325016 8.825115 2.372500 0.000000 -48.751700
-0.688066 16.937346 -0.860350 -144.169379 84.951341 -132.020890 -12.888442 2.946612 -0.704532 -5.898384 6.259301 -11.849988 0.370489 2.696036 48.259130 2.450165 16.247767 3.218235 2.777700 0.000000 -39.887500 7.397171 -0.979023 3.703622 7.386239 9.224243 -32.120142 3.246588 -0.485599 13.450166 1.549457 9.630237 8.199719 2.080300 0.000000 -48.144901
-0.569970 16.959776 -0.853274 -148.020679 84.277168 -135.710772 -12.929161 2.857583 -0.788022 -5.958199 6.902362 -13.613206 0.464864 2.798282 50.367404 2.717212 18.095384 3.414997 3.208600 0.000000 -33.101600 7.417881 -1.004157 3.736814 7.480964 9.124968 -31.824459 3.227578 -0.444009 13.514203 1.455531 8.836772 7.620698 1.782500 0.000000 -47.823100
-0.455476 16.982618 -0.846569 -151.525787 83.563805 -139.052713 -12.941874 2.763974 -0.866218 -6.117177 7.427679 -15.330246 0.539202 2.897626 52.295602 2.963549 19.789429 3.396606 3.568101 -0.000000 -27.408100 7.450133 -1.020286 3.762331 7.510666 9.030792 -31.515061 3.193999 -0.400244 13.536126 1.346428 7.972607 7.087999 1.486601 0.000000 -47.712000
